<svg width="30" height="32" viewBox="0 0 30 32" fill="none" xmlns="http://www.w3.org/2000/svg">
<path d="M21.9506 0.666504V2.81601C19.7257 1.45474 17.1951 0.735236 14.6172 0.730988C12.6975 0.699369 10.7918 1.07732 9.01653 1.84174C7.24128 2.60615 5.63377 3.74099 4.29224 5.17688C2.90694 6.57279 1.81116 8.25174 1.07307 10.1093C0.334985 11.9669 -0.0296385 13.9634 0.00188251 15.9746C-0.0283849 17.9888 0.336726 19.9881 1.07466 21.8489C1.81259 23.7098 2.90767 25.3927 4.29224 26.7937C5.62858 28.2395 7.23428 29.3834 9.01015 30.1549C10.786 30.9263 12.6943 31.3089 14.6172 31.279C17.3163 31.278 19.9608 30.4835 22.2487 28.9862C22.5515 29.6476 23.0161 30.2136 23.5954 30.627C24.18 31.0568 24.8786 31.2848 25.5932 31.279H29.2531V0.666504H21.9506ZM17.2353 11.4391C17.4135 10.1458 18.4004 9.2896 19.4387 9.56187C20.477 9.83414 21.1727 11.0665 20.9945 12.3562C20.8163 13.6459 19.8294 14.5057 18.791 14.2335C17.7527 13.9612 17.0571 12.7288 17.2353 11.4391ZM13.0169 7.07919C13.949 6.42001 15.2237 6.85708 15.8646 8.05363C16.5054 9.25019 16.2723 10.762 15.3403 11.4212C14.4082 12.0804 13.1368 11.6469 12.496 10.4467C11.8552 9.24661 12.0882 7.75987 13.0169 7.07919ZM8.2502 9.22869C9.18229 8.56951 10.4571 9.003 11.0979 10.2031C11.7387 11.4033 11.5057 12.9115 10.5736 13.5707C9.64148 14.2299 8.37013 13.7964 7.72932 12.5963C7.08851 11.3961 7.32153 9.90937 8.2502 9.24302V9.22869ZM9.52839 18.425C8.99724 19.3923 7.73618 19.5714 6.71156 18.8262C5.68695 18.0811 5.28944 16.6767 5.82059 15.7274C6.35175 14.778 7.61281 14.581 8.63742 15.3261C9.66204 16.0713 10.063 17.472 9.52839 18.4393V18.425ZM20.9671 20.9327C19.6786 21.9645 17.787 20.7751 16.2244 21.4701C14.6412 22.1042 14.0655 24.3361 12.4549 24.526C10.8443 24.7159 9.61064 22.8852 11.0842 19.5535C12.0437 17.3108 11.7764 15.3906 13.548 14.5881C15.354 13.8716 16.4403 15.4587 18.6642 16.3794C21.93 17.7049 22.2555 19.9189 20.9671 20.9471V20.9327Z" fill="#FCF0E3"/>
</svg>
