<svg width="248" height="313" xmlns="http://www.w3.org/2000/svg" fill="none">
 <g>
  <title>Layer 1</title>
  <path d="m80.4242,324.265c-24.2636,-1.816 -44.6483,-19.343 -51.2234,-43.717c-8.1972,-30.327 -6.7601,-63.545 4.7194,-92.72c15.4002,-39.174 48.562,-70.3079 87.5808,-82.2348c32.513,-9.9367 72.794,-4.1374 92.003,24.9188c12.529,18.955 13.604,43.42 13.694,66.429c0.098,21.996 -0.349,44.342 -6.421,65.441c-6.073,21.099 -18.55,41.049 -37.285,51.251c-16.855,9.183 -36.695,9.605 -55.716,9.825c-16.656,0.192 -32.412,1.924 -47.3518,0.807z" fill="#36D6AD" id="svg_1"/>
  <path d="m53.5343,143.975c8.5076,-13.401 17.2489,-20.401 30.4899,-28.7037c5.4588,-3.4251 12.0478,-7.7476 11.7448,-14.3569c-0.262,-5.7121 -5.878,-9.6261 -11.267,-10.8516c-12.1143,-2.7478 -25.0065,3.6312 -32.7257,13.6762c-7.7193,10.045 -10.9214,23.145 -11.5842,35.962c-0.1883,3.537 0.2372,7.863 3.3347,9.378c3.6486,1.784 7.496,-1.85 10.0075,-5.118" fill="#36D6AD" id="svg_2"/>
  <path d="m218.297,283.55c0.383,-0.7 0.718,-1.426 1.001,-2.172c1.702,-4.406 3.397,-5.632 5.103,-10.673c0.224,-0.793 0.565,-1.547 1.011,-2.238c1.671,-2.34 5.369,-2.301 7.758,-0.699c4.611,3.09 4.939,10.349 1.622,14.804c-3.54,4.749 -9.979,6.596 -15.84,6.355c-0.294,-0.01 -0.578,-0.111 -0.813,-0.289c-0.235,-0.179 -0.409,-0.425 -0.498,-0.706c-0.513,-1.708 -0.056,-3.094 0.656,-4.382z" fill="#36D6AD" id="svg_3"/>
  <path d="m230.829,182.926c-1.507,10.034 -7.158,19.517 -15.696,25.062c-2.547,1.647 -5.561,3.285 -6.338,6.221c-0.499,1.861 0.052,3.841 0.558,5.684c8.036,29.785 6.432,61.353 -4.58,90.168c-0.736,1.899 -3.597,7.615 -3.597,7.615c0,0 -44.159,9.078 -57.554,9.221l0.593,-4.344l0.663,-4.888c1.015,-7.527 2.218,-16.169 3.547,-25.449c7.849,-54.963 19.834,-132.435 20.605,-134.89c2.34,-7.493 7.45,14.018 7.656,21.867c1.425,-1.882 3.228,-3.445 5.293,-4.587c2.065,-1.143 4.346,-1.84 6.696,-2.047c-1.8,-8.358 -1.448,-14.611 1.005,-22.513c0.039,-0.131 0.115,-0.248 0.221,-0.336c0.105,-0.088 0.233,-0.143 0.37,-0.158c0.136,-0.016 0.273,0.01 0.395,0.072c0.122,0.063 0.223,0.16 0.29,0.279c4.782,8.279 5.348,15.513 8.194,25.404c0.478,1.652 0.314,3.841 1.925,4.431c0.984,0.349 2.069,-0.08 3.025,-0.503l17.091,-7.541c2.891,-1.271 5.784,-2.551 8.679,-3.841c1.43,4.891 1.758,10.039 0.959,15.073z" fill="#FFF3DB" id="svg_4"/>
  <path d="m149.988,301.475c0,0 -8.445,-62.532 -35.077,-83.75c-0.349,-0.269 0.583,0 0.611,0.419c0.652,9.462 4.185,81.942 28.822,104.535l5.644,-21.204z" fill="#FFF3DB" id="svg_5"/>
  <path d="m230.829,182.926c-4.779,-2.65 -7.929,-7.681 -9.655,-11.236c2.89,-1.271 5.783,-2.551 8.678,-3.84c1.437,4.891 1.77,10.04 0.977,15.076z" fill="#1A2B60" id="svg_6"/>
  <path d="m185.717,193.63c0.75,1.879 0.764,3.639 0.031,3.932c-0.732,0.293 -1.932,-0.995 -2.679,-2.87c-0.746,-1.875 -0.763,-3.638 -0.031,-3.932c0.733,-0.293 1.933,0.992 2.679,2.87z" fill="#1A2B60" id="svg_7"/>
  <path d="m195.571,188.757c0.747,1.874 0.761,3.634 0.028,3.927c-0.733,0.294 -1.932,-0.991 -2.679,-2.87c-0.746,-1.878 -0.764,-3.638 -0.031,-3.927c0.732,-0.29 1.932,0.991 2.682,2.87z" fill="#1A2B60" id="svg_8"/>
  <path d="m212.398,207.031c0,0 -9.659,11.382 -18.138,0.956" stroke="#1A2B60" stroke-miterlimit="10" stroke-linecap="round" id="svg_9"/>
  <path d="m40.8054,321.562c0,0 -7.6739,-79.812 19.2127,-137.729l7.9878,21.026c4.0699,-1.194 8.3967,-1.194 12.4666,0l8.3018,-21.026c0,0 35.1077,73.555 28.5677,146.545l-76.5366,-8.816z" fill="white" id="svg_10"/>
  <path d="m66.8795,216.091c0,2.361 -0.6697,4.27 -1.4964,4.27c-0.8267,0 -1.4964,-1.909 -1.4964,-4.27c0,-2.36 0.6697,-4.27 1.4964,-4.27c0.8267,0 1.4964,1.9 1.4964,4.27z" fill="#1A2B60" id="svg_11"/>
  <path d="m77.2673,216.091c0,2.361 -0.6698,4.27 -1.4965,4.27c-0.8267,0 -1.4964,-1.909 -1.4964,-4.27c0,-2.36 0.6697,-4.27 1.4964,-4.27c0.8267,0 1.4965,1.9 1.4965,4.27z" fill="#1A2B60" id="svg_12"/>
  <path d="m68.107,231.604l-26.5308,-18.005" stroke="#1A2B60" stroke-width="0.5" stroke-miterlimit="10" stroke-linecap="round" id="svg_13"/>
  <path d="m68.1078,231.604l-31.8851,8.348" stroke="#1A2B60" stroke-width="0.5" stroke-miterlimit="10" stroke-linecap="round" id="svg_14"/>
  <path d="m68.1078,231.604l-25.1879,-3.481" stroke="#1A2B60" stroke-width="0.5" stroke-miterlimit="10" stroke-linecap="round" id="svg_15"/>
  <path d="m71.8887,231.988l34.2603,-15.237" stroke="#1A2B60" stroke-width="0.5" stroke-miterlimit="10" stroke-linecap="round" id="svg_16"/>
  <path d="m71.8887,231.988l32.1013,11.086" stroke="#1A2B60" stroke-width="0.5" stroke-miterlimit="10" stroke-linecap="round" id="svg_17"/>
  <path d="m71.8887,231.988l28.1983,-2.811" stroke="#1A2B60" stroke-width="0.5" stroke-miterlimit="10" stroke-linecap="round" id="svg_18"/>
  <path d="m90.076,278.313c11.992,2.444 25.01,-0.314 34.881,-7.573c4.883,-3.596 9.069,-8.215 11.8,-13.669c2.675,-5.426 4.078,-11.391 4.102,-17.441c0.024,-6.051 -1.331,-12.027 -3.962,-17.474c-1.329,-2.698 -3.006,-5.21 -4.988,-7.472c-2.25,-2.566 -4.936,-4.706 -7.702,-6.686c-5.515,-3.949 -11.912,-7.377 -15.948,-12.89c-1.89,-2.581 -3.254,-5.297 -3.743,-8.457c-0.405,-2.942 0.3,-5.93 1.978,-8.379c3.558,-5.37 10.074,-8.052 15.17,-11.945c2.707,-2.07 5.267,-4.539 6.718,-7.66c1.371,-2.961 1.985,-6.365 1.127,-9.563c-0.42,-1.524 -1.181,-2.931 -2.225,-4.117c-0.614,-0.698 -1.835,-0.632 -2.467,0c-0.318,0.332 -0.496,0.774 -0.496,1.235c0,0.46 0.178,0.902 0.496,1.234c0.192,0.207 0.361,0.434 0.503,0.677c0.192,0.307 0.364,0.627 0.512,0.957c-0.097,-0.22 0.025,0.052 0.035,0.084c0.063,0.167 0.122,0.349 0.178,0.509c0.122,0.405 0.22,0.817 0.293,1.233c0.101,0.562 0,-0.307 0.032,0.262c0,0.122 0.021,0.244 0.028,0.349c0.019,0.37 0.019,0.74 0,1.11c-0.012,0.662 -0.103,1.319 -0.273,1.959c-0.697,2.905 -2.351,5.258 -4.632,7.332c-4.792,4.382 -11.162,6.875 -15.717,11.676c-2.282,2.405 -4.102,5.376 -4.64,8.693c-0.486,3.29 -0.025,6.649 1.329,9.686c1.346,3.069 3.248,5.863 5.609,8.24c2.442,2.52 5.348,4.594 8.239,6.574c2.892,1.98 5.763,3.785 8.456,5.936c1.293,1.024 2.518,2.131 3.669,3.313c0.465,0.484 0.915,0.983 1.35,1.498c0.534,0.628 0.757,0.918 1.189,1.515c0.853,1.18 1.627,2.416 2.317,3.698c0.62,1.15 1.17,2.337 1.646,3.554c1.033,2.679 1.747,5.47 2.128,8.317c-0.035,-0.259 0,0.045 0,0.083c0.021,0.182 0.045,0.35 0.066,0.549c0.038,0.349 0.073,0.729 0.101,1.096c0.061,0.733 0.098,1.469 0.112,2.207c0.034,1.411 -0.01,2.824 -0.133,4.231c-0.031,0.349 -0.069,0.733 -0.111,1.1c-0.021,0.182 -0.042,0.349 -0.067,0.548c0.039,-0.279 -0.017,0.108 -0.024,0.175c-0.112,0.759 -0.247,1.513 -0.405,2.262c-0.287,1.38 -0.653,2.743 -1.095,4.082c-0.213,0.642 -0.443,1.274 -0.698,1.903c-0.254,0.628 -0.429,1.047 -0.774,1.77c-1.828,3.859 -4.372,7.335 -7.496,10.244c-2.063,1.961 -4.349,3.672 -6.812,5.097c-2.437,1.461 -5.025,2.651 -7.72,3.551c-5.458,1.866 -11.251,2.551 -16.994,2.008c-1.344,-0.12 -2.68,-0.321 -4.001,-0.601c-0.445,-0.112 -0.917,-0.048 -1.316,0.179c-0.4,0.227 -0.696,0.6 -0.8289,1.04c-0.2372,0.862 0.2899,1.959 1.2169,2.147l-0.013,0.014z" fill="white" id="svg_19"/>
  <path d="m157.613,94.5425c0,0 61.42,-2.4999 71.737,55.7065" stroke="#36D6AD" stroke-width="2" stroke-miterlimit="10" stroke-linecap="round" id="svg_20"/>
  <path d="m111.144,56.7473c-3.745,-0.9564 -7.215,-2.7721 -10.138,-5.3034c-2.922,-2.5312 -5.216,-5.7086 -6.699,-9.2805c-0.935,-2.3009 -1.514,-4.8532 -0.932,-7.2658c0.583,-2.4126 2.582,-4.60176 5.055,-4.77633c1.901,-0.13617 3.732,0.91125 5.002,2.33233c1.269,1.421 2.093,3.1877 2.864,4.923c-1.256,-3.1424 -2.529,-6.51166 -1.902,-9.84253c0.628,-3.33087 4.008,-6.37195 7.231,-5.3245c2.791,0.90429 3.966,4.1374 4.591,6.98295c2.012,9.22798 1.95,19.36028 -2.742,27.55128" fill="#FC7071" id="svg_21"/>
  <path d="m139.503,60.4761c-1.839,-1.982 -3.192,-4.3656 -3.952,-6.9618c-0.759,-2.5962 -0.904,-5.3338 -0.422,-7.9957c0.321,-1.7073 0.945,-3.4251 2.201,-4.6227c1.256,-1.1976 3.261,-1.7248 4.779,-0.8904c1.168,0.6425 1.848,1.9518 2.054,3.2681c0.206,1.3162 0,2.6605 -0.178,3.9768c0.454,-2.3254 0.977,-4.7834 2.609,-6.5047c1.633,-1.7213 4.765,-2.2205 6.279,-0.384c1.291,1.5851 0.764,3.9349 0.049,5.8517c-2.313,6.1869 -6.181,12.1189 -12.041,15.153" fill="#FCF0E3" id="svg_22"/>
  <path d="m128.902,87.1474c-1.715,0.9135 -3.619,1.4147 -5.561,1.4638c-1.943,0.0491 -3.87,-0.3552 -5.629,-1.181c-1.123,-0.5376 -2.204,-1.2883 -2.79,-2.3847c-0.586,-1.0963 -0.6,-2.5837 0.262,-3.4914c0.351,-0.3268 0.772,-0.5704 1.23,-0.713c0.458,-0.1426 0.942,-0.1805 1.417,-0.111c0.948,0.1456 1.867,0.4353 2.728,0.8589c-1.528,-0.7472 -3.14,-1.5642 -4.033,-3.0166c-0.893,-1.4525 -0.666,-3.7255 0.886,-4.4273c1.34,-0.6075 2.875,0.1921 4.071,1.0475c3.868,2.7478 7.276,6.536 8.302,11.1727" fill="#36D6AD" id="svg_23"/>
  <path d="m20.0088,211c-4.0088,6 -19.0088,51.5 15.1658,98.089" stroke="#36D6AD" stroke-width="2" stroke-miterlimit="10" stroke-linecap="round" id="svg_24"/>
 </g>

</svg>